<svg width="30" height="30" viewBox="0 0 30 30" fill="none" xmlns="http://www.w3.org/2000/svg">
<path fill-rule="evenodd" clip-rule="evenodd" d="M10.9763 8.71128C11.0636 8.79836 11.1329 8.90182 11.1801 9.01571C11.2274 9.12961 11.2517 9.25171 11.2517 9.37503C11.2517 9.49834 11.2274 9.62044 11.1801 9.73434C11.1329 9.84824 11.0636 9.95169 10.9763 10.0388L6.01316 15L10.9763 19.9613C11.0635 20.0484 11.1326 20.1519 11.1798 20.2658C11.2269 20.3797 11.2512 20.5018 11.2512 20.625C11.2512 20.7483 11.2269 20.8704 11.1798 20.9842C11.1326 21.0981 11.0635 21.2016 10.9763 21.2888C10.8891 21.3759 10.7856 21.4451 10.6718 21.4923C10.5579 21.5394 10.4358 21.5637 10.3125 21.5637C10.1893 21.5637 10.0672 21.5394 9.95332 21.4923C9.83943 21.4451 9.73595 21.3759 9.64879 21.2888L4.02379 15.6638C3.93648 15.5767 3.86721 15.4732 3.81995 15.3593C3.77269 15.2454 3.74836 15.1233 3.74836 15C3.74836 14.8767 3.77269 14.7546 3.81995 14.6407C3.86721 14.5268 3.93648 14.4234 4.02379 14.3363L9.64879 8.71128C9.73587 8.62397 9.83933 8.5547 9.95322 8.50744C10.0671 8.46018 10.1892 8.43585 10.3125 8.43585C10.4358 8.43585 10.558 8.46018 10.6718 8.50744C10.7857 8.5547 10.8892 8.62397 10.9763 8.71128Z" fill="black"/>
<path fill-rule="evenodd" clip-rule="evenodd" d="M4.6875 15C4.6875 14.7514 4.78627 14.5129 4.96209 14.3371C5.1379 14.1613 5.37636 14.0625 5.625 14.0625H25.3125C25.5611 14.0625 25.7996 14.1613 25.9754 14.3371C26.1512 14.5129 26.25 14.7514 26.25 15C26.25 15.2486 26.1512 15.4871 25.9754 15.6629C25.7996 15.8387 25.5611 15.9375 25.3125 15.9375H5.625C5.37636 15.9375 5.1379 15.8387 4.96209 15.6629C4.78627 15.4871 4.6875 15.2486 4.6875 15Z" fill="black"/>
</svg>
