<svg width="23" height="26" viewBox="0 0 23 26" fill="none" xmlns="http://www.w3.org/2000/svg">
<path d="M18.75 8.66665H21.1667C21.4871 8.66665 21.7945 8.79395 22.0211 9.02056C22.2477 9.24717 22.375 9.55451 22.375 9.87498V24.375C22.375 24.6954 22.2477 25.0028 22.0211 25.2294C21.7945 25.456 21.4871 25.5833 21.1667 25.5833H1.83333C1.51286 25.5833 1.20552 25.456 0.978913 25.2294C0.752306 25.0028 0.625 24.6954 0.625 24.375V9.87498C0.625 9.55451 0.752306 9.24717 0.978913 9.02056C1.20552 8.79395 1.51286 8.66665 1.83333 8.66665H4.25V7.45831C4.25 5.53549 5.01384 3.69143 6.37348 2.33179C7.73312 0.97215 9.57718 0.208313 11.5 0.208313C13.4228 0.208313 15.2669 0.97215 16.6265 2.33179C17.9862 3.69143 18.75 5.53549 18.75 7.45831V8.66665ZM16.3333 8.66665V7.45831C16.3333 6.17643 15.8241 4.94706 14.9177 4.04063C14.0113 3.1342 12.7819 2.62498 11.5 2.62498C10.2181 2.62498 8.98874 3.1342 8.08232 4.04063C7.17589 4.94706 6.66667 6.17643 6.66667 7.45831V8.66665H16.3333ZM10.2917 15.9166V18.3333H12.7083V15.9166H10.2917ZM5.45833 15.9166V18.3333H7.875V15.9166H5.45833ZM15.125 15.9166V18.3333H17.5417V15.9166H15.125Z" fill="#FFA500"/>
</svg>
