<svg width="29" height="29" viewBox="2 0 29 29" fill="none" xmlns="http://www.w3.org/2000/svg">
<path d="M24.3855 9.14788C23.4929 8.17559 22.1474 7.61061 20.2824 7.41352V6.41495C20.2824 4.6149 19.5097 2.88054 18.1508 1.67174C16.7787 0.436667 14.9935 -0.141453 13.1418 0.029355C9.95785 0.331554 7.28014 3.36668 7.28014 6.65145V7.41352C5.41507 7.61061 4.06956 8.17559 3.17699 9.14788C1.88476 10.5669 1.92473 12.4589 2.07127 13.7728L3.0038 21.0913C3.28356 23.6534 4.336 26.2812 10.0644 26.2812H17.4981C23.2265 26.2812 24.2789 23.6534 24.5587 21.1044L25.4912 13.7597C25.6378 12.4589 25.6777 10.5669 24.3855 9.14788ZM13.3283 1.85569C14.6605 1.73744 15.9261 2.14475 16.9119 3.02507C17.8844 3.89225 18.4306 5.12732 18.4306 6.41495V7.33469H9.13189V6.65145C9.13189 4.3127 11.0902 2.06591 13.3283 1.85569ZM13.7812 21.7877C10.997 21.7877 8.73224 19.554 8.73224 16.808C8.73224 14.0619 10.997 11.8283 13.7812 11.8283C16.5655 11.8283 18.8303 14.0619 18.8303 16.808C18.8303 19.554 16.5655 21.7877 13.7812 21.7877Z" fill="#FFA500"/>
<path d="M12.9535 19.0313C12.6235 19.0313 12.2935 18.8742 12.1087 18.5962C11.8314 18.1733 11.9766 17.6054 12.4519 17.3517L13.6268 16.7112V15.4063C13.6268 14.9108 14.0756 14.5 14.6169 14.5C15.1581 14.5 15.5938 14.8988 15.5938 15.4063V17.2188C15.5938 17.5329 15.4089 17.835 15.1185 17.9921L13.4684 18.8983C13.31 18.9829 13.1251 19.0313 12.9535 19.0313Z" fill="#FFA500"/>
</svg>
