<svg width="30" height="25" viewBox="0 0 30 25" fill="none" xmlns="http://www.w3.org/2000/svg">
<path d="M27.3126 12.3291L15.5521 2.28025C15.4674 2.2077 15.3668 2.15015 15.2561 2.11088C15.1453 2.07161 15.0267 2.05139 14.9068 2.05139C14.7869 2.05139 14.6682 2.07161 14.5575 2.11088C14.4468 2.15015 14.3462 2.2077 14.2615 2.28025L2.50092 12.3291C2.1583 12.6221 1.96414 13.02 1.96414 13.435C1.96414 14.2969 2.78359 14.9975 3.79147 14.9975H5.03063V22.168C5.03063 22.6001 5.43893 22.9492 5.9443 22.9492H13.0795V17.4804H16.2773V22.9492H23.8693C24.3746 22.9492 24.7829 22.6001 24.7829 22.168V14.9975H26.0221C26.5075 14.9975 26.9729 14.834 27.3155 14.5386C28.0264 13.9282 28.0264 12.9394 27.3126 12.3291V12.3291Z" fill="white"/>
</svg>
