<svg width="29" height="23" viewBox="0 0 29 23" fill="none" xmlns="http://www.w3.org/2000/svg">
<path d="M28.1504 12.4628L18.6348 21.9784C17.7852 22.828 16.3125 22.2333 16.3125 21.0155V15.578H8.60938C7.85605 15.578 7.25 14.972 7.25 14.2187V8.78117C7.25 8.02785 7.85605 7.4218 8.60938 7.4218H16.3125V1.9843C16.3125 0.772189 17.7795 0.171798 18.6348 1.02141L28.1504 10.537C28.6771 11.0695 28.6771 11.9304 28.1504 12.4628ZM10.875 21.6952V19.4296C10.875 19.0558 10.5691 18.7499 10.1953 18.7499H5.4375C4.43496 18.7499 3.625 17.94 3.625 16.9374V6.06242C3.625 5.05988 4.43496 4.24992 5.4375 4.24992H10.1953C10.5691 4.24992 10.875 3.94406 10.875 3.57024V1.30461C10.875 0.930782 10.5691 0.624923 10.1953 0.624923H5.4375C2.43555 0.624923 0 3.06047 0 6.06242V16.9374C0 19.9394 2.43555 22.3749 5.4375 22.3749H10.1953C10.5691 22.3749 10.875 22.0691 10.875 21.6952Z" fill="#FFA500"/>
</svg>
