<svg width="25" height="25" viewBox="0 0 25 25" fill="none" xmlns="http://www.w3.org/2000/svg">
<path d="M9.375 22.2222C10.3338 22.2222 11.1111 21.4449 11.1111 20.4861C11.1111 19.5273 10.3338 18.75 9.375 18.75C8.41617 18.75 7.63889 19.5273 7.63889 20.4861C7.63889 21.4449 8.41617 22.2222 9.375 22.2222Z" fill="white"/>
<path d="M18.4028 22.2222C19.3616 22.2222 20.1389 21.4449 20.1389 20.4861C20.1389 19.5273 19.3616 18.75 18.4028 18.75C17.444 18.75 16.6667 19.5273 16.6667 20.4861C16.6667 21.4449 17.444 22.2222 18.4028 22.2222Z" fill="white"/>
<path d="M22.9861 4.43751C22.9214 4.35347 22.8383 4.28537 22.7432 4.23842C22.6481 4.19148 22.5435 4.16693 22.4375 4.16668H6.39582L6.08332 3.17362C6.049 3.067 5.98938 2.97026 5.90958 2.89166C5.82977 2.81306 5.73213 2.75493 5.62499 2.72223L2.77777 1.84723C2.69022 1.82033 2.59823 1.81094 2.50705 1.81958C2.41587 1.82823 2.32729 1.85475 2.24636 1.89764C2.08292 1.98424 1.96057 2.13223 1.90624 2.30904C1.85191 2.48585 1.87004 2.677 1.95664 2.84045C2.04325 3.00389 2.19123 3.12623 2.36805 3.18057L4.8611 3.94446L8.04166 13.9931L6.90971 14.9236L6.81943 15.0139C6.5395 15.338 6.3809 15.7494 6.37077 16.1776C6.36064 16.6057 6.4996 17.0241 6.76388 17.3611C6.95316 17.5913 7.19368 17.774 7.4662 17.8946C7.73872 18.0152 8.03568 18.0703 8.33332 18.0556H19.9236C20.1078 18.0556 20.2844 17.9824 20.4146 17.8522C20.5449 17.7219 20.618 17.5453 20.618 17.3611C20.618 17.1769 20.5449 17.0003 20.4146 16.8701C20.2844 16.7398 20.1078 16.6667 19.9236 16.6667H8.22221C8.14224 16.6639 8.06433 16.6406 7.996 16.599C7.92767 16.5574 7.87123 16.4988 7.83214 16.429C7.79304 16.3592 7.77261 16.2805 7.77282 16.2005C7.77303 16.1205 7.79387 16.0418 7.83332 15.9722L9.50693 14.5833H20.2222C20.3808 14.588 20.5363 14.5381 20.6626 14.4421C20.789 14.3461 20.8786 14.2096 20.9167 14.0556L23.1389 5.02779C23.16 4.92426 23.1572 4.81728 23.1307 4.71499C23.1043 4.6127 23.0548 4.5178 22.9861 4.43751Z" fill="white"/>
</svg>
