<svg width="25" height="25" viewBox="0 0 25 25" fill="none" xmlns="http://www.w3.org/2000/svg">
<path d="M9.375 22.2222C10.3338 22.2222 11.1111 21.4449 11.1111 20.4861C11.1111 19.5273 10.3338 18.75 9.375 18.75C8.41617 18.75 7.63889 19.5273 7.63889 20.4861C7.63889 21.4449 8.41617 22.2222 9.375 22.2222Z" fill="black"/>
<path d="M18.4028 22.2222C19.3616 22.2222 20.1389 21.4449 20.1389 20.4861C20.1389 19.5273 19.3616 18.75 18.4028 18.75C17.444 18.75 16.6667 19.5273 16.6667 20.4861C16.6667 21.4449 17.444 22.2222 18.4028 22.2222Z" fill="black"/>
<path d="M22.9861 4.43745C22.9214 4.35341 22.8383 4.28531 22.7432 4.23836C22.6481 4.19141 22.5435 4.16687 22.4375 4.16662H6.39582L6.08332 3.17356C6.049 3.06694 5.98939 2.9702 5.90958 2.8916C5.82977 2.813 5.73213 2.75487 5.62499 2.72217L2.77777 1.84717C2.69022 1.82027 2.59823 1.81087 2.50705 1.81952C2.41587 1.82817 2.32729 1.85469 2.24636 1.89758C2.08292 1.98418 1.96057 2.13217 1.90624 2.30898C1.85191 2.48579 1.87004 2.67694 1.95664 2.84038C2.04325 3.00383 2.19123 3.12617 2.36805 3.18051L4.8611 3.94439L8.04166 13.993L6.90971 14.9236L6.81944 15.0138C6.5395 15.338 6.3809 15.7493 6.37077 16.1775C6.36064 16.6057 6.4996 17.024 6.76388 17.3611C6.95316 17.5912 7.19368 17.7739 7.4662 17.8945C7.73872 18.0151 8.03568 18.0702 8.33332 18.0555H19.9236C20.1078 18.0555 20.2844 17.9823 20.4146 17.8521C20.5449 17.7219 20.618 17.5452 20.618 17.3611C20.618 17.1769 20.5449 17.0002 20.4146 16.87C20.2844 16.7398 20.1078 16.6666 19.9236 16.6666H8.22221C8.14225 16.6639 8.06433 16.6406 7.996 16.5989C7.92767 16.5573 7.87124 16.4988 7.83214 16.4289C7.79305 16.3591 7.77261 16.2804 7.77282 16.2004C7.77303 16.1204 7.79387 16.0418 7.83332 15.9722L9.50694 14.5833H20.2222C20.3809 14.5879 20.5363 14.5381 20.6626 14.442C20.789 14.346 20.8786 14.2096 20.9167 14.0555L23.1389 5.02773C23.16 4.9242 23.1572 4.81722 23.1307 4.71492C23.1043 4.61263 23.0548 4.51773 22.9861 4.43745Z" fill="black"/>
</svg>
